# AST/ASF file generated using VICON BodyLanguage
# -----------------------------------------------
:version 1.10
:name VICON
:units
  mass 1.0
  length 0.45
  angle deg
:documentation
   .ast/.asf automatically generated from VICON data using
   VICON BodyBuilder and BodyLanguage model FoxedUp or BRILLIANT.MOD
:root
   order TX TY TZ RX RY RZ
   axis XYZ
   position 0 0 0  
   orientation 0 0 0 
:bonedata
  begin
     id 1 
     name lhipjoint
     direction 0.627457 -0.725269 0.283342 
     length 2.53237 
     axis 0 0 0  XYZ
  end
  begin
     id 2 
     name lfemur
     direction 0.34202 -0.939693 0  
     length 7.32496  
     axis 0 0 20  XYZ
    dof rx ry rz
    limits (-160.0 20.0)
           (-70.0 70.0)
           (-60.0 70.0)
  end
  begin
     id 3 
     name ltibia
     direction 0.34202 -0.939693 0   
     length 7.69674   
     axis 0 0 20   XYZ
    dof rx
    limits (-10.0 170.0)
  end
  begin
     id 4 
     name lfoot
     direction 0.127289 -0.349722 0.928166   
     length 1.8612   
     axis -90 7.62852e-016 20   XYZ
    dof rx rz
    limits (-45.0 90.0)
           (-70.0 20.0)
  end
  begin
     id 5 
     name ltoes
     direction 1.53561e-011 -4.21864e-011 1   
     length 0.925608   
     axis -90 7.62852e-016 20   XYZ
    dof rx
    limits (-90.0 20.0)
  end
  begin
     id 6 
     name rhipjoint
     direction -0.609094 -0.738725 0.288599   
     length 2.48624  
     axis 0 0 0  XYZ 
  end
  begin
     id 7 
     name rfemur
     direction -0.34202 -0.939693 0   
     length 7.44259   
     axis 0 0 -20   XYZ
    dof rx ry rz
    limits (-160.0 20.0)
           (-70.0 70.0)
           (-70.0 60.0)
  end
  begin
     id 8 
     name rtibia
     direction -0.34202 -0.939693 0   
     length 7.7781   
     axis 0 0 -20   XYZ
    dof rx
    limits (-10.0 170.0)
 end
 begin
     id 9 
     name rfoot
     direction -0.107015 -0.294021 0.949789   
     length 2.14741  
     axis -90 -7.62852e-016 -20   XYZ
    dof rx rz
    limits (-45.0 90.0)
           (-20.0 70.0)
  end
  begin
     id 10 
     name rtoes
     direction -1.53497e-011 -4.21924e-011 1   
     length 1.0706   
     axis -90 -7.62852e-016 -20   XYZ
    dof rx
    limits (-90.0 20.0)
  end
  begin
     id 11 
     name lowerback
     direction -0.0142066 0.998112 -0.0597545   
     length 1.86627   
     axis 0 0 0   XYZ
    dof rx ry rz
    limits (-20.0 45.0)
           (-30.0 30.0)
           (-30.0 30.0)
  end
  begin
     id 12 
     name upperback
     direction 0.00547294 0.999744 0.0219437   
     length 1.86272   
     axis 0 0 0   XYZ
    dof rx ry rz
    limits (-20.0 45.0)
           (-30.0 30.0)
           (-30.0 30.0)
  end
  begin
     id 13 
     name thorax
     direction 0.0116162 0.998704 0.0495538   
     length 1.8703   
     axis 0 0 0   XYZ
    dof rx ry rz
    limits (-20.0 45.0)
           (-30.0 30.0)
           (-30.0 30.0)
  end
  begin
     id 14 
     name lowerneck
     direction -0.0106574 0.998739 0.0490586   
     length 1.8074   
     axis 0 0 0   XYZ
    dof rx ry rz
    limits (-20.0 45.0)
           (-30.0 30.0)
           (-30.0 30.0)
  end
  begin
     id 15 
     name upperneck
     direction 0.030527 0.976587 -0.212944   
     length 1.80681   
     axis 0 0 0   XYZ
    dof rx ry rz
    limits (-20.0 45.0)
           (-30.0 30.0)
           (-30.0 30.0)
  end
  begin
     id 16
     name head
     direction 0.00869225 0.997035 -0.0764531  
     length 1.8313  
     axis 0 0 0   XYZ
    dof rx ry rz
    limits (-20.0 45.0)
           (-30.0 30.0)
           (-30.0 30.0)
  end
  begin
     id 17 
     name lclavicle
     direction 0.915958 0.399447 0.0382386  
     length 3.78965  
     axis 0 0 0   XYZ
    dof ry rz
    limits (-20.0 10.0)
           (0.0 20.0)
  end
  begin
     id 18 
     name lhumerus
     direction 1 -4.48967e-011 3.19303e-027   
     length 4.78095   
     axis -180 -30 -90   XYZ
    dof rx ry rz
    limits (-60.0 90.0)
           (-90.0 90.0)
           (-90.0 90.0)
  end
  begin
     id 19
     name lradius
     direction 1 -4.48967e-011 -3.77974e-027   
     length 3.58615   
     axis -180 -30 -90   XYZ
    dof rx
    limits (-10.0 170.0)
  end
  begin
     id 20
     name lwrist
     direction 1 -4.48927e-011 1.2807e-027   
     length 1.79307   
     axis 1.91374e-015 90 90   XYZ
    dof ry
    limits (-180.0 0.0)
 end
  begin
     id 21 
     name lhand
     direction 1 -4.49036e-011 2.5614e-027   
     length 0.659812   
     axis -1.63439e-015 90 90   XYZ
    dof rx rz
    limits (-90.0 90.0)
           (-45.0 45.0)
  end
  begin
     id 22 
     name lfingers
     direction 1 -4.49052e-011 5.1228e-027   
     length 0.531957   
     axis -3.26879e-015 90 90   XYZ
    dof rx
    limits (0.0 90.0)
  end
  begin
     id 23
     name lthumb
     direction 0.707107 -6.35012e-011 0.707107   
     length 0.763787   
     axis -90 45 2.85299e-015   XYZ
    dof rx rz
    limits (-45.0 45.0)
           (-45.0 45.0)
  end
  begin
     id 24 
     name rclavicle
     direction -0.895351 0.435135 0.0948887   
     length 3.70497  
     axis 0 0 0   XYZ 
    dof ry rz
    limits (-10.0 20.0)
           (-20.0 0.0)
  end
  begin
     id 25 
     name rhumerus
     direction -1 -4.48971e-011 2.38946e-027  
     length 4.48913   
     axis -180 30 90   XYZ
    dof rx ry rz
    limits (-90.0 60.0)
           (-90.0 90.0)
           (-90.0 90.0)
  end
  begin
     id 26 
     name rradius
     direction -1 -4.4895e-011 4.38668e-027   
     length 3.7051   
     axis -180 30 90   XYZ
    dof rx
    limits (-10.0 170.0)
  end
  begin
     id 27 
     name rwrist
     direction -1 -4.49007e-011 1.2807e-027   
     length 1.85255   
     axis 1.91374e-015 -90 -90   XYZ
    dof ry
    limits (-180.0 0.0)
  end
  begin
     id 28
     name rhand
     direction -1 -4.48851e-011 2.5614e-027   
     length 0.449136   
     axis -1.63439e-015 -90 -90   XYZ
    dof rx rz
    limits (-90.0 90.0)
           (-45.0 45.0)
  end
  begin
     id 29
     name rfingers
     direction -1 -4.49128e-011 5.1228e-027   
     length 0.362105   
     axis -3.26879e-015 -90 -90   XYZ
    dof rx
    limits (0.0 90.0)
  end
  begin
     id 30
     name rthumb
     direction -0.707107 -6.34851e-011 0.707107   
     length 0.519912   
     axis -90 -45 -2.85299e-015   XYZ
    dof rx rz
    limits (-45.0 45.0)
           (-45.0 45.0)
  end
:hierarchy
  begin
    root lhipjoint rhipjoint lowerback
    lhipjoint lfemur
    lfemur ltibia
    ltibia lfoot
    lfoot ltoes
    rhipjoint rfemur
    rfemur rtibia
    rtibia rfoot
    rfoot rtoes
    lowerback upperback
    upperback thorax
    thorax lowerneck lclavicle rclavicle
    lowerneck upperneck
    upperneck head
    lclavicle lhumerus
    lhumerus lradius
    lradius lwrist
    lwrist lhand lthumb
    lhand lfingers
    rclavicle rhumerus
    rhumerus rradius
    rradius rwrist
    rwrist rhand rthumb
    rhand rfingers
  end

#!OML:ASF I:\Actors\actors\Patient Classification 2\Patient 1\Session 1\actor1.ASF
:FULLY-SPECIFIED
:DEGREES
1
root -0.665823 18.6817 5.87265 1.35626 -2.5099 -1.45173
lowerback 1.71487 1.21852 -0.776843
upperback -2.63332 1.60067 0.0223793
thorax -3.69079 0.819252 0.379471
lowerneck -11.4886 -2.36305 -0.530441
upperneck 22.588 -4.04207 3.51463
head 9.05686 -1.57105 0.835183
rclavicle -2.40529e-014 -2.38542e-015
rhumerus -49.5782 -2.07535 -87.333
rradius 41.9759
rwrist 18.9989
rhand -6.8381 -29.2353
rfingers 7.12502
rthumb 19.0265 -58.3247
lclavicle -2.40529e-014 -2.38542e-015
lhumerus -43.8571 2.39562 89.3516
lradius 37.4959
lwrist -14.4634
lhand -7.51009 -26.2594
lfingers 7.12502
lthumb 18.3802 2.89229
rfemur 7.13698 0.143603 14.9901
rtibia 1.27222e-014
rfoot -15.4475 -7.87542
rtoes -2.22027
lfemur -3.24304 -7.96862 -13.2731
ltibia 20.3391
lfoot -23.6476 15.4289
ltoes -54.9848
2
root -0.666237 18.6819 5.87093 1.34231 -2.49137 -1.42987
lowerback 1.71627 1.21836 -0.800214
upperback -2.61562 1.59949 0.0170844
thorax -3.67375 0.819138 0.387381
lowerneck -11.5084 -2.37032 -0.522806
upperneck 22.5723 -4.04928 3.49794
head 9.0548 -1.57553 0.827161
rclavicle -1.49089e-016 3.37934e-015
rhumerus -49.5951 -2.02731 -87.3619
rradius 42.034
rwrist 18.9625
rhand -6.82855 -29.2886
rfingers 7.12502
rthumb 19.0357 -58.377
lclavicle -1.49089e-016 3.37934e-015
lhumerus -43.8178 2.431 89.3399
lradius 37.4381
lwrist -14.4962
lhand -7.48191 -26.3086
lfingers 7.12502
lthumb 18.4073 2.84048
rfemur 7.1477 0.126689 14.9613
rtibia 0
rfoot -15.4584 -7.84169
rtoes -1.98999
lfemur -3.21586 -8.0076 -13.2997
ltibia 20.3013
lfoot -23.6643 15.4887
ltoes -55.034
3
root -0.666268 18.6824 5.86901 1.33797 -2.476 -1.41818
lowerback 1.71043 1.2152 -0.789605
upperback -2.60258 1.59512 -0.00187604
thorax -3.65603 0.816299 0.362495
lowerneck -11.5105 -2.37054 -0.51706
upperneck 22.5436 -4.05579 3.52413
head 9.04596 -1.57575 0.834339
rclavicle -1.55797e-014 -5.56597e-015
rhumerus -49.595 -2.03114 -87.3915
rradius 42.0419
rwrist 18.9293
rhand -6.89737 -29.3082
rfingers 7.12502
rthumb 18.9695 -58.4032
lclavicle -1.55797e-014 -5.56597e-015
lhumerus -43.8252 2.41973 89.3148
lradius 37.4401
lwrist -14.5494
lhand -7.52878 -26.3684
lfingers 7.12502
lthumb 18.3622 2.78497
rfemur 7.14773 0.112004 14.9463
rtibia 2.06736e-014
rfoot -15.4423 -7.82601
rtoes -1.92386
lfemur -3.21383 -8.05796 -13.3161
ltibia 20.2892
lfoot -23.6695 15.5233
ltoes -55.0183
4
root -0.665802 18.6829 5.86749 1.34897 -2.46919 -1.41247
lowerback 1.70064 1.21303 -0.778316
upperback -2.6089 1.59218 -0.0170436
thorax -3.65624 0.814322 0.340871
lowerneck -11.445 -2.25919 -0.559123
upperneck 22.5045 -3.89945 3.57273
head 9.01826 -1.50219 0.876318
rclavicle 9.20621e-015 0
rhumerus -49.6149 -2.03717 -87.4104
rradius 42.0367
rwrist 18.89
rhand -6.94098 -29.2622
rfingers 7.12502
rthumb 18.9276 -58.3613
lclavicle 9.20621e-015 0
lhumerus -43.8537 2.42148 89.2776
lradius 37.4216
lwrist -14.6428
lhand -7.58554 -26.4626
lfingers 7.12502
lthumb 18.3076 2.69588
rfemur 7.13007 0.104638 14.9379
rtibia 1.59028e-014
rfoot -15.4351 -7.81759
rtoes -1.76319
lfemur -3.22867 -8.0472 -13.3191
ltibia 20.2701
lfoot -23.5969 15.4953
ltoes -55.0385
5
root -0.66528 18.6832 5.86675 1.35443 -2.464 -1.40051
lowerback 1.68715 1.21224 -0.781019
upperback -2.60732 1.59089 -0.0248233
thorax -3.6468 0.813616 0.334787
lowerneck -11.3997 -2.06879 -0.689453
upperneck 22.4931 -3.62456 3.66343
head 9.00316 -1.37515 0.960502
rclavicle 1.06723e-014 3.97569e-015
rhumerus -49.611 -2.06256 -87.3991
rradius 42.0111
rwrist 18.8894
rhand -6.9643 -29.1478
rfingers 7.12502
rthumb 18.9052 -58.2491
lclavicle 1.06723e-014 3.97569e-015
lhumerus -43.8663 2.42609 89.2636
lradius 37.3948
lwrist -14.6369
lhand -7.60667 -26.5259
lfingers 7.12502
lthumb 18.2873 2.63446
rfemur 7.11675 0.0992689 14.9227
rtibia 3.18055e-015
rfoot -15.4211 -7.8391
rtoes -1.82536
lfemur -3.23411 -8.0339 -13.3318
ltibia 20.2573
lfoot -23.5535 15.4657
ltoes -55.0723
6
root -0.665353 18.6837 5.86665 1.35276 -2.47262 -1.38773
lowerback 1.65602 1.21582 -0.790576
upperback -2.5883 1.59552 -0.0295869
thorax -3.6097 0.815982 0.336013
lowerneck -11.4186 -1.98099 -0.816095
upperneck 22.4982 -3.50203 3.77961
head 9.00967 -1.31562 1.03502
rclavicle -1.4064e-014 -5.76476e-015
rhumerus -49.5994 -2.06456 -87.3991
rradius 42.0069
rwrist 18.8647
rhand -7.02959 -29.073
rfingers 7.12502
rthumb 18.8424 -58.1804
lclavicle -1.4064e-014 -5.76476e-015
lhumerus -43.9259 2.08849 89.4214
lradius 37.4685
lwrist -14.2158
lhand -7.75113 -26.4461
lfingers 7.12502
lthumb 18.1483 2.72728
rfemur 7.11565 0.107464 14.912
rtibia 7.95139e-015
rfoot -15.4049 -7.88467
rtoes -2.13271
lfemur -3.21992 -8.06238 -13.3539
ltibia 20.2468
lfoot -23.5929 15.5151
ltoes -55.1171
7
root -0.665694 18.6844 5.86567 1.36566 -2.47837 -1.36319
lowerback 1.62041 1.22085 -0.819133
upperback -2.57874 1.60134 -0.0384498
thorax -3.58029 0.819442 0.34357
lowerneck -11.3381 -1.95879 -0.668188
upperneck 22.3941 -3.47746 3.69664
head 8.95403 -1.30295 0.985015
rclavicle 2.16427e-014 1.39149e-015
rhumerus -49.6059 -2.05272 -87.4126
rradius 42.0186
rwrist 18.8251
rhand -7.00035 -29.0621
rfingers 7.12502
rthumb 18.8705 -58.1668
lclavicle 2.16427e-014 1.39149e-015
lhumerus -44.0385 1.48888 89.6898
lradius 37.5837
lwrist -13.6301
lhand -7.97867 -26.3859
lfingers 7.12502
lthumb 17.9294 2.80764
rfemur 7.09893 0.111458 14.8872
rtibia -1.59028e-015
rfoot -15.4215 -7.89331
rtoes -2.20267
lfemur -3.22752 -8.0831 -13.3829
ltibia 20.2316
lfoot -23.6099 15.6084
ltoes -55.1895
